<svg  width="50" height="165" viewBox="0 0 75 70" xmlns="http://www.w3.org/2000/svg">
<style type="text/css">
	.st0{fill:#FFFFFF;}
	.st1{fill:#37B34A;}
</style>
<path id="XMLID_3_" class="st1" d="M37.8,4.1c-5.7,0-15.1,0.2-20.6,0.9C9.7,5.9,6.7,9.8,5.8,17c-0.6,5.5-1.1,13.3-1.1,20.7
	s0.1,15.3,1.1,20.7c1.2,7.1,4.5,10.8,11.4,11.9c5.4,0.9,15.4,0.9,20.6,0.9c5.2,0,15.2,0,20.6-0.9c6.8-1.1,10.1-4.8,11.4-11.9
	c1-5.4,1.1-13.7,1.1-20.7S70.1,21.3,69.7,17C69,9.6,65.8,6,58.3,5C52.9,4.3,43.5,4.1,37.8,4.1z"/>
<path id="XMLID_2_" class="st0" d="M60.9,11.7c1.5,0.6,4.1,4.4,3.5,8.6c-2.9,2.3-6.5,4-9.5,4.5V51h9.6c0,4-0.6,8-1.3,9H45V25H33
	v20.8c0,10.4-6,15.5-13.5,15.5c-2.1,0-4.7-0.3-6.8-0.9c-1-1.4-1.7-5.4-1.8-10.4c5,2.4,12.1,3.5,12.1-4.3V26.5
	c-7,0.8-10.2,6.1-12.8,9.6c0-4.7,0.4-9,0.6-11.9c5.2-5.6,11-8.2,22.4-8.2h16.3C53.5,16,57.4,14.5,60.9,11.7z"/>
</svg>
